# xmcd
#
# Track frame offsets:
#  150
#  21218
#  31550
#  33725
#  49158
#  62901
#  81510
#  97918
#  110890
#  124834
#  143973
#  160360
#  174783
#  188807
#  209715
#  221423
#  251048
#  269910
#  286231
#
# Disc length: 4017 seconds
#
# Revision: 0
# Processed by: cddbd v1.5.2PL0 Copyright (c) Steve Scherf et al.
# Submitted via: AltoMP3_Maker 3.0
#
DISCID=250faf13
DTITLE=Various Artist - Travelin' Texas #2
DYEAR=1900
DGENRE=
TTITLE0=Ray Wylie Hubbard - Ballad of the Crimson Kings
TTITLE1=Billy Joe Shaver - Love Is So Sweet
TTITLE2=Eliza Gylkyson - Beautiful Dreamer
TTITLE3=Delbert McClinton - Desperation
TTITLE4=Ace in the Hole Band w/ Geo. Strait - Lonesome Rodeo Cowboy
TTITLE5=Bianca - Si Me Recuerdas
TTITLE6=Ponty Bone - Clifton's Boogie
TTITLE7=Clay Baker - It's Not too Late
TTITLE8=Denise Dunn - You Are the Man
TTITLE9=Robert Earl Keen - Paint the Town Beige
TTITLE10=Tom Russell - When Sinatra Played Juarez
TTITLE11=Caroline Herring - Wise Woman
TTITLE12=Los Jet Set - Step It Up
TTITLE13=Adam Carroll - Errol's Song
TTITLE14=Shelley King - Pack It Up
TTITLE15=Adam Kay - Mud
TTITLE16=Sara Hickman - Hey! Where You Goin'?
TTITLE17=Michael Jarrett - Suzanna's Silver Ribbon
TTITLE18=Chris Ryback - Red River Valley
EXTD=
EXTT0=
EXTT1=
EXTT2=
EXTT3=
EXTT4=
EXTT5=
EXTT6=
EXTT7=
EXTT8=
EXTT9=
EXTT10=
EXTT11=
EXTT12=
EXTT13=
EXTT14=
EXTT15=
EXTT16=
EXTT17=
EXTT18=
PLAYORDER=
